<svg height="512pt" viewBox="0 -55 512 512" width="512pt" xmlns="http://www.w3.org/2000/svg"><path d="m503.464844 93.867188v281.597656c-.027344 9.414062-7.652344 17.039062-17.066406 17.070312h-460.796876c-.917968 0-1.832031-.085937-2.730468-.257812-6.359375-1.046875-11.59375-5.558594-13.570313-11.691406-.515625-1.65625-.777343-3.382813-.765625-5.121094l-.003906-281.597656zm0 0" fill="#00838f"/><path d="m477.867188 93.867188v281.597656c-.027344 9.414062-7.652344 17.039062-17.066407 17.070312h-435.199219c-.917968 0-1.832031-.085937-2.730468-.257812-6.359375-1.046875-11.59375-5.558594-13.570313-11.691406-.515625-1.65625-.777343-3.382813-.765625-5.121094l-.003906-281.597656zm0 0" fill="#00bcd4"/><path d="m503.464844 25.601562v68.265626h-494.929688v-68.265626c.027344-9.414062 7.652344-17.039062 17.066406-17.066406h460.796876c9.414062.027344 17.039062 7.652344 17.066406 17.066406zm0 0" fill="#283593"/><path d="m477.867188 25.601562v68.265626h-469.332032v-68.265626c.027344-9.414062 7.652344-17.039062 17.066406-17.066406h435.199219c9.414063.027344 17.039063 7.652344 17.066407 17.066406zm0 0" fill="#3f51b5"/><path d="m256 213.332031v34.132813h-247.464844v-34.132813c.027344-9.414062 7.652344-17.039062 17.066406-17.066406h213.332032c9.414062.027344 17.039062 7.652344 17.066406 17.066406zm0 0" fill="#283593"/><path d="m230.398438 213.332031v34.132813h-221.863282v-34.132813c.027344-9.414062 7.652344-17.039062 17.066406-17.066406h187.730469c9.414063.027344 17.039063 7.652344 17.066407 17.066406zm0 0" fill="#3f51b5"/><path d="m256 247.464844v128c-.027344 9.414062-7.652344 17.039062-17.066406 17.070312h-213.332032c-3.84375.011719-7.574218-1.28125-10.582031-3.671875-2.476562-1.933593-4.34375-4.539062-5.375-7.507812-.761719-1.871094-1.140625-3.871094-1.109375-5.890625l-.003906-128zm0 0" fill="#cfd8dc"/><path d="m230.398438 247.464844v128c-.027344 9.414062-7.652344 17.039062-17.066407 17.070312h-187.730469c-3.84375.011719-7.574218-1.28125-10.582031-3.671875-2.476562-1.933593-4.34375-4.539062-5.375-7.507812-.761719-1.871094-1.140625-3.871094-1.109375-5.890625l-.003906-128zm0 0" fill="#f5f5f5"/><path d="m68.265625 51.199219c0 9.425781-7.640625 17.066406-17.066406 17.066406s-17.066407-7.640625-17.066407-17.066406 7.640626-17.066407 17.066407-17.066407 17.066406 7.640626 17.066406 17.066407zm0 0" fill="#f44335"/><path d="m128 51.199219c0 9.425781-7.640625 17.066406-17.066406 17.066406-9.425782 0-17.066406-7.640625-17.066406-17.066406s7.640624-17.066407 17.066406-17.066407c9.425781 0 17.066406 7.640626 17.066406 17.066407zm0 0" fill="#ffeb3a"/><path d="m187.734375 51.199219c0 9.425781-7.640625 17.066406-17.066406 17.066406s-17.066407-7.640625-17.066407-17.066406 7.640626-17.066407 17.066407-17.066407 17.066406 7.640626 17.066406 17.066407zm0 0" fill="#60a917"/><path d="m486.398438 401.066406h-460.796876c-14.132812-.015625-25.585937-11.46875-25.601562-25.601562v-349.863282c.015625-14.132812 11.46875-25.585937 25.601562-25.601562h460.796876c14.132812.015625 25.585937 11.46875 25.601562 25.601562v349.863282c-.015625 14.132812-11.46875 25.585937-25.601562 25.601562zm-460.796876-384c-4.710937.007813-8.527343 3.824219-8.535156 8.535156v349.863282c.007813 4.710937 3.824219 8.527344 8.535156 8.535156h460.796876c4.710937-.007812 8.527343-3.824219 8.535156-8.535156v-349.863282c-.007813-4.710937-3.824219-8.527343-8.535156-8.535156zm0 0"/><path d="m238.933594 401.066406h-213.332032c-14.132812-.015625-25.585937-11.46875-25.601562-25.601562v-162.132813c.015625-14.128906 11.46875-25.582031 25.601562-25.597656h213.332032c14.132812.015625 25.585937 11.46875 25.601562 25.597656v162.132813c-.015625 14.132812-11.46875 25.585937-25.601562 25.601562zm-213.332032-196.265625c-4.710937.003907-8.527343 3.820313-8.535156 8.53125v162.132813c.007813 4.710937 3.824219 8.527344 8.535156 8.535156h213.332032c4.710937-.007812 8.527344-3.824219 8.53125-8.535156v-162.132813c-.003906-4.710937-3.820313-8.527343-8.53125-8.53125zm0 0"/><path d="m503.464844 102.398438h-494.929688c-4.714844 0-8.535156-3.820313-8.535156-8.53125 0-4.714844 3.820312-8.535157 8.535156-8.535157h494.929688c4.714844 0 8.535156 3.820313 8.535156 8.535157 0 4.710937-3.820312 8.53125-8.535156 8.53125zm0 0"/><path d="m51.199219 76.800781c-14.136719 0-25.597657-11.460937-25.597657-25.601562 0-14.136719 11.460938-25.597657 25.597657-25.597657 14.140625 0 25.601562 11.460938 25.601562 25.597657-.015625 14.132812-11.46875 25.585937-25.601562 25.601562zm0-34.132812c-4.710938 0-8.53125 3.820312-8.53125 8.53125 0 4.714843 3.820312 8.535156 8.53125 8.535156 4.714843 0 8.535156-3.820313 8.535156-8.535156-.007813-4.710938-3.824219-8.527344-8.535156-8.53125zm0 0"/><path d="m110.933594 76.800781c-14.140625 0-25.601563-11.460937-25.601563-25.601562 0-14.136719 11.460938-25.597657 25.601563-25.597657 14.136718 0 25.601562 11.460938 25.601562 25.597657-.015625 14.132812-11.46875 25.585937-25.601562 25.601562zm0-34.132812c-4.714844 0-8.535156 3.820312-8.535156 8.53125 0 4.714843 3.820312 8.535156 8.535156 8.535156 4.710937 0 8.53125-3.820313 8.53125-8.535156-.003906-4.710938-3.820313-8.527344-8.53125-8.53125zm0 0"/><path d="m170.667969 76.800781c-14.140625 0-25.601563-11.460937-25.601563-25.601562 0-14.136719 11.460938-25.597657 25.601563-25.597657 14.136719 0 25.597656 11.460938 25.597656 25.597657-.015625 14.132812-11.46875 25.585937-25.597656 25.601562zm0-34.132812c-4.714844 0-8.535157 3.820312-8.535157 8.53125 0 4.714843 3.820313 8.535156 8.535157 8.535156 4.710937 0 8.53125-3.820313 8.53125-8.535156-.003907-4.710938-3.820313-8.527344-8.53125-8.53125zm0 0"/><path d="m256 256h-247.464844c-4.714844 0-8.535156-3.820312-8.535156-8.535156 0-4.710938 3.820312-8.53125 8.535156-8.53125h247.464844c4.710938 0 8.535156 3.820312 8.535156 8.53125 0 4.714844-3.824218 8.535156-8.535156 8.535156zm0 0"/><path d="m42.667969 221.867188c0 4.710937-3.820313 8.53125-8.535157 8.53125-4.710937 0-8.53125-3.820313-8.53125-8.53125 0-4.714844 3.820313-8.535157 8.53125-8.535157 4.714844 0 8.535157 3.820313 8.535157 8.535157zm0 0"/><path d="m68.265625 221.867188c0 4.710937-3.820313 8.53125-8.53125 8.53125-4.714844 0-8.535156-3.820313-8.535156-8.53125 0-4.714844 3.820312-8.535157 8.535156-8.535157 4.710937 0 8.53125 3.820313 8.53125 8.535157zm0 0"/><path d="m93.867188 221.867188c0 4.710937-3.820313 8.53125-8.535157 8.53125-4.710937 0-8.53125-3.820313-8.53125-8.53125 0-4.714844 3.820313-8.535157 8.53125-8.535157 4.714844 0 8.535157 3.820313 8.535157 8.535157zm0 0"/><path d="m324.265625 196.265625c-4.710937 0-8.53125-3.820313-8.53125-8.53125v-51.199219h-51.199219c-4.714844 0-8.535156-3.824218-8.535156-8.535156s3.820312-8.535156 8.535156-8.535156h59.730469c4.714844 0 8.535156 3.824218 8.535156 8.535156v59.734375c0 4.710937-3.820312 8.53125-8.535156 8.53125zm0 0"/><path d="m250.964844 209.835938c-3.449219 0-6.5625-2.082032-7.882813-5.269532-1.320312-3.1875-.589843-6.859375 1.847657-9.296875l73.304687-73.300781c3.347656-3.234375 8.667969-3.191406 11.960937.101562 3.292969 3.292969 3.335938 8.613282.105469 11.960938l-73.304687 73.304688c-1.597656 1.601562-3.765625 2.5-6.03125 2.5zm0 0"/><path d="m324.265625 196.265625c-4.710937 0-8.53125-3.820313-8.53125-8.53125v-59.734375c0-4.710938 3.820313-8.535156 8.53125-8.535156 4.714844 0 8.535156 3.824218 8.535156 8.535156v59.734375c0 4.710937-3.820312 8.53125-8.535156 8.53125zm0 0"/><path d="m59.734375 136.535156h-17.066406c-4.714844 0-8.535157-3.824218-8.535157-8.535156s3.820313-8.535156 8.535157-8.535156h17.066406c4.710937 0 8.53125 3.824218 8.53125 8.535156s-3.820313 8.535156-8.53125 8.535156zm0 0"/><path d="m170.667969 136.535156h-76.800781c-4.714844 0-8.535157-3.824218-8.535157-8.535156s3.820313-8.535156 8.535157-8.535156h76.800781c4.710937 0 8.53125 3.824218 8.53125 8.535156s-3.820313 8.535156-8.53125 8.535156zm0 0"/><path d="m51.199219 290.132812h-8.53125c-4.714844 0-8.535157-3.820312-8.535157-8.53125 0-4.714843 3.820313-8.535156 8.535157-8.535156h8.53125c4.714843 0 8.535156 3.820313 8.535156 8.535156 0 4.710938-3.820313 8.53125-8.535156 8.53125zm0 0"/><path d="m119.464844 290.132812h-34.132813c-4.710937 0-8.53125-3.820312-8.53125-8.53125 0-4.714843 3.820313-8.535156 8.53125-8.535156h34.132813c4.714844 0 8.535156 3.820313 8.535156 8.535156 0 4.710938-3.820312 8.53125-8.535156 8.53125zm0 0"/></svg>