<svg height="512pt" viewBox="0 0 512 512" width="512pt" xmlns="http://www.w3.org/2000/svg"><path d="m0 0h512v512h-512z" fill="#ddeaf1"/><path d="m256 0h256v512h-256zm0 0" fill="#bddfff"/><path d="m96.035156 117.753906 101.191406 101.191406 21.214844-21.214843-101.261718-101.261719h84.234374v-30h-135.378906v135.519531h30zm0 0" fill="#fc4a48"/><path d="m197.226562 293.023438-101.191406 101.191406v-84.234375h-30v135.515625h135.378906v-30h-84.234374l101.261718-101.261719zm0 0" fill="#fc4a48"/><g fill="#fc1c5c"><path d="m309.140625 66.46875v30h84.234375l-101.261719 101.261719 21.214844 21.214843 101.191406-101.191406v84.234375h30v-135.519531zm0 0"/><path d="m414.519531 394.214844-101.191406-101.191406-21.214844 21.210937 101.261719 101.261719h-84.234375v30h135.378906v-135.515625h-30zm0 0"/></g></svg>