<?xml version="1.0" encoding="iso-8859-1"?>
<!-- Generator: Adobe Illustrator 19.0.0, SVG Export Plug-In . SVG Version: 6.00 Build 0)  -->
<svg version="1.1" id="Layer_1" xmlns="http://www.w3.org/2000/svg" xmlns:xlink="http://www.w3.org/1999/xlink" x="0px" y="0px"
	 viewBox="0 0 512 512" style="enable-background:new 0 0 512 512;" xml:space="preserve">
<path style="fill:#54DEE2;" d="M504.145,446.415c0,5.747-4.702,10.449-10.449,10.449H65.567c-5.747,0-10.449-4.702-10.449-10.449
	V18.286c0-5.747,4.702-10.449,10.449-10.449h428.129c5.747,0,10.449,4.702,10.449,10.449V446.415z"/>
<path style="opacity:0.1;enable-background:new    ;" d="M82.285,446.415V18.286c0-5.747,4.702-10.449,10.449-10.449H65.567
	c-5.747,0-10.449,4.702-10.449,10.449v428.129c0,5.747,4.702,10.449,10.449,10.449h27.167
	C86.987,456.864,82.285,452.162,82.285,446.415z"/>
<path style="fill:#54DEE2;" d="M220.699,493.714c0,5.747-4.702,10.449-10.449,10.449H18.303c-5.747,0-10.449-4.702-10.449-10.449
	V301.768c0-5.747,4.702-10.449,10.449-10.449H210.25c5.747,0,10.449,4.702,10.449,10.449V493.714z"/>
<path style="fill:#00ADE4;" d="M210.25,291.319H55.118v155.097c0,5.747,4.702,10.449,10.449,10.449h155.132V301.768
	C220.699,296.021,215.997,291.319,210.25,291.319z"/>
<path style="opacity:0.1;enable-background:new    ;" d="M38.399,493.714V301.768c0-5.747,4.702-10.449,10.449-10.449H18.303
	c-5.747,0-10.449,4.702-10.449,10.449v191.947c0,5.747,4.702,10.449,10.449,10.449h30.545
	C43.102,504.163,38.399,499.461,38.399,493.714z"/>
<path style="fill:#F16A5D;" d="M420.063,99.406c-0.001-4.098-3.354-7.449-7.452-7.452h-24.159l-95.928,95.927
	c-2.898,2.896-2.898,7.639,0,10.537l21.076,21.076c2.896,2.897,7.638,2.897,10.537,0l95.927-95.927L420.063,99.406L420.063,99.406z"
	/>
<path style="fill:#EA3939;" d="M457.315,47.252c4.098,0,7.45,3.352,7.45,7.45v115.413c0.002,4.099-3.352,7.45-7.45,7.45h-29.802
	c-4.1,0-7.451-3.351-7.451-7.45V99.406c-0.001-4.098-3.354-7.449-7.452-7.452h-70.709c-4.099,0-7.45-3.351-7.45-7.45V54.702
	c0-4.098,3.351-7.452,7.45-7.45H457.315z"/>
<path d="M472.602,54.702c0-8.429-6.858-15.287-15.287-15.287H341.897c-8.426,0-15.283,6.858-15.283,15.287v29.802
	c0,8.429,6.858,15.287,15.287,15.287h27.629l-82.549,82.548c-5.96,5.961-5.96,15.659,0,21.62l21.076,21.076
	c2.981,2.98,6.894,4.469,10.809,4.469c3.914,0,7.83-1.49,10.812-4.469l15.194-15.194c3.06-3.062,3.06-8.023,0-11.083
	c-3.062-3.059-8.023-3.059-11.083,0l-14.92,14.921l-20.53-20.529l93.36-93.358h20.529v20.529l-54.905,54.904
	c-3.061,3.062-3.061,8.023,0,11.083c3.062,3.059,8.023,3.059,11.083,0l43.822-43.821v27.628c0,8.429,6.858,15.287,15.288,15.287
	h29.802c4.075,0,7.912-1.591,10.803-4.483c2.894-2.892,4.486-6.73,4.484-10.804V54.702H472.602z M456.928,169.729H427.9V99.404
	c-0.002-8.422-6.859-15.281-15.289-15.287h-70.323V55.089h114.64V169.729z"/>
<path d="M94.568,39.416c-4.329,0-7.837,3.508-7.837,7.837v90.656c0,4.329,3.508,7.837,7.837,7.837s7.837-3.508,7.837-7.837v-82.82
	h82.82c4.329,0,7.837-3.508,7.837-7.837s-3.508-7.837-7.837-7.837H94.568z"/>
<path d="M493.696,0h-64.505c-4.329,0-7.837,3.508-7.837,7.837s3.508,7.837,7.837,7.837h64.505c1.416,0,2.612,1.196,2.612,2.612
	v428.129c0,1.416-1.196,2.612-2.612,2.612H228.535V358.4c0-4.329-3.508-7.837-7.837-7.837c-4.329,0-7.837,3.508-7.837,7.837v90.627
	h-71.018H65.567c-1.416,0-2.612-1.196-2.612-2.612v-147.26H210.25c1.416,0,2.612,1.196,2.612,2.612v22.148
	c0,4.328,3.508,7.837,7.837,7.837c4.329,0,7.837-3.509,7.837-7.837v-22.148c0-10.082-8.203-18.286-18.286-18.286H62.955V18.286
	c0-1.416,1.196-2.612,2.612-2.612h328.097c4.329,0,7.837-3.508,7.837-7.837S397.993,0,393.664,0H65.567
	C55.485,0,47.281,8.203,47.281,18.286v265.196H18.303c-10.082,0-18.286,8.204-18.286,18.286v191.947
	C0.017,503.796,8.221,512,18.303,512H210.25c10.082,0,18.286-8.203,18.286-18.286v-29.014h265.162
	c10.082,0,18.286-8.204,18.286-18.286V18.286C511.982,8.203,503.779,0,493.696,0z M212.862,493.714c0,1.416-1.196,2.612-2.612,2.612
	H18.303c-1.416,0-2.612-1.196-2.612-2.612V301.768c0-1.416,1.196-2.612,2.612-2.612h28.978v147.261
	c0,10.082,8.203,18.286,18.286,18.286h76.278h71.018V493.714z"/>
<path d="M456.928,326.793v82.82h-82.82c-4.329,0-7.837,3.508-7.837,7.837s3.508,7.837,7.837,7.837h90.656
	c4.329,0,7.837-3.508,7.837-7.837v-90.656c0-4.329-3.508-7.837-7.837-7.837C460.436,318.956,456.928,322.464,456.928,326.793z"/>
<g>
</g>
<g>
</g>
<g>
</g>
<g>
</g>
<g>
</g>
<g>
</g>
<g>
</g>
<g>
</g>
<g>
</g>
<g>
</g>
<g>
</g>
<g>
</g>
<g>
</g>
<g>
</g>
<g>
</g>
</svg>
