<?xml version="1.0" encoding="iso-8859-1"?>
<!-- Generator: Adobe Illustrator 19.0.0, SVG Export Plug-In . SVG Version: 6.00 Build 0)  -->
<svg version="1.1" id="Layer_1" xmlns="http://www.w3.org/2000/svg" xmlns:xlink="http://www.w3.org/1999/xlink" x="0px" y="0px"
	 viewBox="0 0 481.6 481.6" style="enable-background:new 0 0 481.6 481.6;" xml:space="preserve">
<rect x="12" y="12" style="fill:#FFFFFF;" width="457.6" height="457.6"/>
<polyline style="fill:#E8EFEE;" points="12,12 469.6,12 469.6,469.6 "/>
<g>
	<path style="fill:#B1BCBC;" d="M469.6,481.6H12c-6.4,0-12-5.6-12-12V12C0,5.6,5.6,0,12,0h457.6c6.4,0,12,5.6,12,12v457.6
		C481.6,476,476,481.6,469.6,481.6z M24,457.6h433.6V24H24V457.6z"/>
	<path style="fill:#B1BCBC;" d="M294.4,108.8h-192c-4.8,0-8-3.2-8-8s3.2-8,8-8h192c4.8,0,8,3.2,8,8S299.2,108.8,294.4,108.8z"/>
	<path style="fill:#B1BCBC;" d="M247.2,164.8H102.4c-4.8,0-8-3.2-8-8s3.2-8,8-8h144.8c4.8,0,8,3.2,8,8S252,164.8,247.2,164.8z"/>
	<path style="fill:#B1BCBC;" d="M294.4,220.8h-192c-4.8,0-8-3.2-8-8s3.2-8,8-8h192c4.8,0,8,3.2,8,8S299.2,220.8,294.4,220.8z"/>
	<path style="fill:#B1BCBC;" d="M247.2,276.8H102.4c-4.8,0-8-3.2-8-8s3.2-8,8-8h144.8c4.8,0,8,3.2,8,8S252,276.8,247.2,276.8z"/>
	<path style="fill:#B1BCBC;" d="M294.4,332.8h-192c-4.8,0-8-3.2-8-8s3.2-8,8-8h192c4.8,0,8,3.2,8,8S299.2,332.8,294.4,332.8z"/>
	<path style="fill:#B1BCBC;" d="M247.2,388.8H102.4c-4.8,0-8-3.2-8-8s3.2-8,8-8h144.8c4.8,0,8,3.2,8,8S252,388.8,247.2,388.8z"/>
</g>
<path style="fill:#FFFFFF;" d="M393.6,473.6c-7.2,0-13.6-4-13.6-8.8v-448c0-4.8,6.4-8.8,13.6-8.8h67.2c7.2,0,13.6,4,13.6,8.8v448
	c0,4.8-6.4,8.8-13.6,8.8H393.6z"/>
<path style="fill:#B1BCBC;" d="M460,16c3.2,0,4.8,0.8,5.6,1.6V464c-0.8,0.8-2.4,1.6-5.6,1.6h-67.2c-3.2,0-4.8-0.8-5.6-1.6V17.6
	c0.8-0.8,2.4-1.6,5.6-1.6L460,16 M460,0h-67.2c-12,0-21.6,7.2-21.6,16.8v448c0,9.6,9.6,16.8,21.6,16.8H460c12,0,21.6-7.2,21.6-16.8
	v-448C481.6,8,472,0,460,0L460,0z"/>
<path style="fill:#C2CECE;" d="M393.6,359.2c-7.2,0-12-1.6-13.6-2.4v-232c1.6-0.8,6.4-2.4,13.6-2.4h67.2c7.2,0,12,1.6,13.6,2.4v232
	c-1.6,0.8-6.4,2.4-13.6,2.4H393.6z"/>
<path style="fill:#B1BCBC;" d="M460,130.4c2.4,0,4,0,5.6,0.8V352c-1.6,0-3.2,0.8-5.6,0.8h-67.2c-2.4,0-4,0-5.6-0.8V130.4
	c1.6,0,3.2-0.8,5.6-0.8H460 M460,114.4h-67.2c-12,0-21.6,4-21.6,8.8v235.2c0,4.8,9.6,8.8,21.6,8.8H460c12,0,21.6-4,21.6-8.8V123.2
	C481.6,118.4,472,114.4,460,114.4L460,114.4z"/>
<path style="fill:#96A3A2;" d="M393.6,183.2c-5.6,0-10.4,0-13.6-0.8v-60c3.2,0,7.2-0.8,13.6-0.8h67.2c5.6,0,10.4,0,13.6,0.8v60
	c-3.2,0-7.2,0.8-13.6,0.8H393.6z"/>
<path style="fill:#B1BCBC;" d="M460,130.4c1.6,0,4,0,5.6,0v44.8c-1.6,0-3.2,0-5.6,0h-67.2c-1.6,0-4,0-5.6,0v-44.8c1.6,0,3.2,0,5.6,0
	H460 M460,114.4h-67.2c-12,0-21.6,1.6-21.6,2.4v72c0,1.6,9.6,2.4,21.6,2.4H460c12,0,21.6-1.6,21.6-2.4v-72
	C481.6,115.2,472,114.4,460,114.4L460,114.4z"/>
<g>
	<path style="fill:#606868;" d="M436.8,74.4c0,2.4-1.6,4-4,4H420c-2.4,0-4-1.6-4-4V61.6c0-1.6,1.6-4,4-4h12.8c2.4,0,4,1.6,4,4V74.4z
		"/>
	<path style="fill:#606868;" d="M436.8,420c0,2.4-1.6,4-4,4H420c-2.4,0-4-1.6-4-4v-12.8c0-1.6,1.6-4,4-4h12.8c2.4,0,4,1.6,4,4V420z"
		/>
</g>
<g>
</g>
<g>
</g>
<g>
</g>
<g>
</g>
<g>
</g>
<g>
</g>
<g>
</g>
<g>
</g>
<g>
</g>
<g>
</g>
<g>
</g>
<g>
</g>
<g>
</g>
<g>
</g>
<g>
</g>
</svg>
