<svg xmlns="http://www.w3.org/2000/svg" xmlns:xlink="http://www.w3.org/1999/xlink" version="1.1" id="Ebene_1" x="0px" y="0px" viewBox="0 0 946.4 223.5" style="enable-background:new 0 0 946.4 223.5;" xml:space="preserve">
<style type="text/css">
	.st0{fill:#FF5A10;}
	.st1{fill:#FFFFFF;}
	.st2{fill-rule:evenodd;clip-rule:evenodd;fill:#FFFFFF;}
</style>
<g>
	<path class="st0" d="M671,57h8.1v100.1H671V57z"/>
	<path class="st0" d="M736.9,146.7h-0.3c-3.6,7.8-12.7,12-20.7,12c-18.6,0-21.5-12.5-21.5-18.4c0-21.9,23.3-22.9,40.2-22.9h1.5V114   c0-11.1-4-16.8-14.8-16.8c-6.8,0-13.2,1.5-19.2,5.4v-7.8c5-2.4,13.4-4.5,19.2-4.5c16.1,0,22.9,7.3,22.9,24.3v28.8   c0,5.2,0,9.2,0.6,13.7h-7.9V146.7z M736.1,124.3h-2.3c-14,0-30.6,1.4-30.6,15.7c0,8.6,6.1,11.8,13.6,11.8   c18.9,0,19.3-16.5,19.3-23.6V124.3z"/>
	<path class="st0" d="M762.6,57h8.1v45.9h0.3c1.2-3.2,7.6-12.5,20.4-12.5c19.2,0,26.9,14.3,26.9,34.2c0,19.3-9,34.2-26.9,34.2   c-9.3,0-16-3.6-20.4-11.9h-0.3v10.4h-8.1V57z M790,97.3c-14.7,0-19.3,15.4-19.3,27.3s5,27.3,19.3,27.3c15.4,0,19.3-14.6,19.3-27.3   S805.4,97.3,790,97.3z"/>
	<path class="st0" d="M829.6,147.7c4.9,2.4,10.8,4.1,17,4.1c7.7,0,14.5-4.2,14.5-11.6c0-15.5-31.4-13.1-31.4-32   c0-12.9,10.5-17.8,21.2-17.8c3.5,0,10.4,0.8,16.1,2.9l-0.8,7c-4.2-1.9-10-3.1-14.5-3.1c-8.3,0-14.1,2.6-14.1,10.9   c0,12.2,32.1,10.6,32.1,32c0,13.8-12.9,18.6-22.8,18.6c-6.3,0-12.5-0.8-18.3-3.1L829.6,147.7z"/>
</g>
<g>
	<path class="st1" d="M353.8,94.7c-1.3,0-3.9,0.1-7,1.6c-3.3,1.6-9,6.3-9,16c0.1,9.3,6.1,17.1,15.8,17.1c3.4,0,5.6-0.8,6.8-1.4   c3.3-1.5,9.4-6.1,9.4-16c0-3.6-0.8-6-1.3-7.1C366.2,98.6,360.6,94.6,353.8,94.7L353.8,94.7z M327.2,71.7l5.7-14.7h22.9l-3.1,8   l0.6,0c1.5,0,3.6,0,6.1,0.2l3.2-8.2h22.9l-5.7,14.8c0.8,0.5,1.7,1,2.5,1.6c4.2,2.8,14.7,11.3,18.5,25.9c0.5,2,1.4,6.7,1.4,12.6   c0,27.5-19.9,47.2-47.4,47.2c-3.4,0-10.8-0.3-19.3-3.3c-19.1-6.8-30.3-23.2-30.3-43.5c0-1.9,0.1-6.6,1.4-11.9   c3.8-16.1,14.3-24.6,19.4-27.9C326.5,72.2,326.8,72,327.2,71.7L327.2,71.7z"/>
	<path class="st2" d="M503.4,91.8v15.1h4.4c3.3,0,6.7-0.1,8.7-3.2c0.5-0.8,1.3-2.3,1.3-4.6c0-8.1-8.9-7.4-10.1-7.4H503.4L503.4,91.8   z M472.7,67.6h37c2.7,0,5.3,0,8,0.3c10.3,0.6,19.7,3.4,26.1,11.9c2.3,2.9,5.8,8.4,5.8,17.6c0,11.7-5.3,17.4-9.4,20.3   c-2.4,1.6-4.4,2.5-7.2,3.6l21.7,35.9H520l-16.6-32.8v32.8h-30.7V67.6L472.7,67.6z"/>
	<path class="st2" d="M256.5,91.8v15.1h4.4c3.3,0,6.7-0.1,8.8-3.2c0.5-0.8,1.3-2.3,1.3-4.6c0-8.1-8.9-7.4-10.1-7.4H256.5L256.5,91.8   z M225.8,67.6h37c2.7,0,5.3,0,8,0.3c10.3,0.6,19.7,3.4,26.1,11.9c2.3,2.9,5.8,8.4,5.8,17.6c0,11.7-5.3,17.4-9.4,20.3   c-2.4,1.6-4.4,2.5-7.2,3.6l21.7,35.9h-34.7l-16.6-32.8v32.8h-30.7V67.6L225.8,67.6z"/>
	<polygon class="st1" points="220.3,67.6 151.7,67.6 151.7,94.4 169.5,94.4 169.5,157.1 202.4,157.1 202.4,94.4 220.3,94.4    220.3,67.6  "/>
	<polygon class="st1" points="406.6,67.6 406.6,157.1 467.6,157.1 467.6,132.1 437.1,132.1 437.1,123.7 464.4,123.7 464.4,99.9    437.1,99.9 437.1,92.5 466.7,92.5 466.7,67.6 406.6,67.6  "/>
	<path class="st1" d="M148,73.2c-4.1-1.9-11.4-6-22.7-7.7c-4.1-0.6-7.2-0.8-8.8-0.8c-13.6,0-27.4,5.2-33.7,18.1   c-1.1,2.3-3.3,7.2-3.3,14.2c0,16,11.8,21.4,17.1,23.3c3.6,1.1,9.4,2.4,13.2,3c2.4,0.5,6.5,1,6.5,4.7c0,2.8-2.9,5.5-8.5,5.5   c-8,0-15.7-5.3-21.9-9.6l-10.4,24.6c6.1,3.2,18.6,10.1,36.8,10.1c10.7,0,19.3-2.4,27.3-9.5c9.3-8.5,10.4-17.9,10.4-22.8   c0-6.1-1.6-18.1-16.6-24c-3.8-1.4-10.4-2.9-14.3-3.8c-2.5-0.5-6.7-1-6.7-4.6c0-2.8,2.4-4.4,7.4-4.6c7.1,0,12.9,3.4,18.9,7L148,73.2   L148,73.2z"/>
</g>
<g>
	<path class="st1" d="M353.8,94.7c-1.3,0-3.9,0.1-7,1.6c-3.3,1.6-9,6.3-9,16c0.1,9.3,6.1,17.1,15.9,17.1c3.4,0,5.6-0.8,6.8-1.4   c3.3-1.5,9.4-6.1,9.4-16c0-3.6-0.8-6-1.3-7.1C366.2,98.7,360.6,94.6,353.8,94.7L353.8,94.7z M327.2,71.7l5.7-14.7h22.9l-3.1,8   l0.6,0c1.5,0,3.6,0,6.1,0.2l3.2-8.2h22.9l-5.7,14.8c0.8,0.5,1.7,1,2.5,1.6c4.2,2.8,14.7,11.3,18.5,25.9c0.5,2,1.4,6.7,1.4,12.6   c0,27.5-19.9,47.2-47.4,47.2c-3.4,0-10.8-0.3-19.3-3.3c-19.1-6.8-30.3-23.2-30.3-43.5c0-1.9,0.1-6.6,1.4-11.9   c3.8-16.1,14.3-24.6,19.4-27.9C326.5,72.2,326.8,72,327.2,71.7L327.2,71.7z"/>
	<path class="st2" d="M503.4,91.8v15.1h4.4c3.3,0,6.7-0.1,8.7-3.2c0.5-0.8,1.3-2.3,1.3-4.6c0-8.1-8.9-7.4-10.1-7.4H503.4L503.4,91.8   z M472.7,67.6h37c2.7,0,5.3,0,8,0.3c10.3,0.6,19.7,3.4,26.1,11.9c2.3,2.9,5.8,8.4,5.8,17.6c0,11.7-5.3,17.4-9.4,20.3   c-2.4,1.6-4.4,2.5-7.2,3.6l21.7,35.9H520l-16.6-32.8v32.8h-30.7V67.6L472.7,67.6z"/>
	<path class="st2" d="M256.5,91.8v15.1h4.4c3.3,0,6.7-0.1,8.8-3.2c0.5-0.8,1.3-2.3,1.3-4.6c0-8.1-8.9-7.4-10.1-7.4H256.5L256.5,91.8   z M225.8,67.6h37c2.7,0,5.3,0,8,0.3c10.3,0.6,19.7,3.4,26.1,11.9c2.3,2.9,5.8,8.4,5.8,17.6c0,11.7-5.3,17.4-9.4,20.3   c-2.4,1.6-4.4,2.5-7.2,3.6l21.7,35.9h-34.7l-16.6-32.8v32.8h-30.7V67.6L225.8,67.6z"/>
	<polygon class="st1" points="220.3,67.6 151.7,67.6 151.7,94.4 169.5,94.4 169.5,157.1 202.4,157.1 202.4,94.4 220.3,94.4    220.3,67.6  "/>
	<polygon class="st1" points="406.6,67.6 406.6,157.1 467.6,157.1 467.6,132.1 437.1,132.1 437.1,123.7 464.4,123.7 464.4,99.9    437.1,99.9 437.1,92.5 466.7,92.5 466.7,67.6 406.6,67.6  "/>
	<path class="st1" d="M148,73.2c-4.1-1.9-11.4-6-22.7-7.7c-4.1-0.6-7.2-0.8-8.7-0.8c-13.6,0-27.4,5.2-33.7,18.1   c-1.1,2.3-3.3,7.2-3.3,14.2c0,16,11.8,21.4,17.1,23.3c3.5,1.1,9.4,2.4,13.2,3c2.4,0.5,6.5,1,6.5,4.7c0,2.8-2.9,5.5-8.5,5.5   c-8,0-15.7-5.3-21.9-9.6l-10.4,24.6c6.1,3.2,18.6,10.1,36.8,10.1c10.7,0,19.3-2.4,27.3-9.5c9.3-8.5,10.4-17.9,10.4-22.8   c0-6.1-1.6-18.1-16.6-24c-3.8-1.4-10.4-2.9-14.3-3.8c-2.5-0.5-6.7-1-6.7-4.6c0-2.8,2.4-4.4,7.4-4.6c7.1,0,12.9,3.4,18.9,7L148,73.2   L148,73.2z"/>
</g>
<rect x="605.3" y="67.5" class="st0" width="5.7" height="89.8"/>
</svg>